<?xml version="1.0" encoding="utf-8"?>
<!-- Generator: Adobe Illustrator 17.1.0, SVG Export Plug-In . SVG Version: 6.00 Build 0)  -->
<!DOCTYPE svg PUBLIC "-//W3C//DTD SVG 1.1//EN" "http://www.w3.org/Graphics/SVG/1.1/DTD/svg11.dtd">
<svg version="1.1" id="Layer_1" xmlns="http://www.w3.org/2000/svg" xmlns:xlink="http://www.w3.org/1999/xlink" x="0px" y="0px"
	 viewBox="0 0 800 900" enable-background="new 0 0 800 900" xml:space="preserve">
<g>
	<path fill="#F3783B" d="M465.6,442.9c116.4-116.4,253-168.3,305.9-116.4c52.9,51.9,0,189.4-116.4,305.9s-253,168.2-305.9,116.4
		C297.3,695.9,349.2,559.3,465.6,442.9z"/>
	<path fill="#F4843C" d="M382.5,374.7C469.2,200.1,602.6,90,680.9,128.1c78.4,39.2,72,211.7-13.7,386.3S447.1,800.3,367.7,761.1
		C289.3,723,295.7,549.4,382.5,374.7z"/>
	<path fill="#FAAE41" d="M334.4,442.9C218,326.5,81.4,274.6,28.5,326.5s0,189.4,116.4,305.9s253,168.2,305.9,116.4
		C502.7,695.9,450.8,559.3,334.4,442.9z"/>
	<path fill="#F89E3E" d="M417.5,374.7C330.8,200.1,197.4,90,119.1,128.1c-78.4,39.2-72,211.7,13.7,386.3s220.1,285.8,299.5,246.7
		C510.7,723,504.3,549.4,417.5,374.7z"/>
	<circle fill="#FAAE41" cx="404.2" cy="841.8" r="46.6"/>
	<ellipse fill="#F6903D" cx="400" cy="390.3" rx="161.9" ry="378.7"/>
</g>
</svg>
