<?xml version="1.0" encoding="utf-8"?>
<!-- Generator: Adobe Illustrator 17.1.0, SVG Export Plug-In . SVG Version: 6.00 Build 0)  -->
<!DOCTYPE svg PUBLIC "-//W3C//DTD SVG 1.1//EN" "http://www.w3.org/Graphics/SVG/1.1/DTD/svg11.dtd" [
	<!ENTITY ns_flows "http://ns.adobe.com/Flows/1.0/">
	<!ENTITY ns_extend "http://ns.adobe.com/Extensibility/1.0/">
	<!ENTITY ns_ai "http://ns.adobe.com/AdobeIllustrator/10.0/">
	<!ENTITY ns_graphs "http://ns.adobe.com/Graphs/1.0/">
]>
<svg version="1.1" id="Layer_1" xmlns:x="&ns_extend;" xmlns:i="&ns_ai;" xmlns:graph="&ns_graphs;"
	 xmlns="http://www.w3.org/2000/svg" xmlns:xlink="http://www.w3.org/1999/xlink" xmlns:a="http://ns.adobe.com/AdobeSVGViewerExtensions/3.0/"
	 x="0px" y="0px" viewBox="0 381 800 138" enable-background="new 0 381 800 138" xml:space="preserve">
<g>
	<g>
		<path fill="#3C4044" d="M3.5,434c4.3-1.9,8.8-2.7,13.9-2.7s9.1,0.5,12.3,1.9c3.2,1.1,6.7,3.2,10.1,5.6c3.5-3.5,7.2-6.1,10.9-7.5
			c3.7-1.3,8-2.1,13.1-2.1c10.1,0,16.8,4,20.3,11.7c4-4.3,7.7-7.2,11.7-9.1s9.1-2.7,15.2-2.7c6.4,0,11.5,1.9,15.2,5.9
			c4,4,5.9,9.3,5.9,16v38.1c0,2.7,0.5,4.8,1.9,6.4c1.3,1.6,3.2,2.4,5.9,2.4s5.9-1.3,9.3-4.3l2.7,3.5c-8,7.2-16,10.9-23.7,10.9
			c-12.3,0-18.4-7.2-18.4-21.9v-38.4c0-3.2-0.8-5.3-2.7-7.2c-1.9-1.6-4.3-2.4-7.5-2.4s-6.1,1.3-9.3,4c-2.9,2.7-4.5,6.1-4.5,10.4
			v53.1H63.2v-57.9c0-3.2-0.8-5.3-2.7-7.2c-1.9-1.6-4.3-2.4-7.5-2.4s-6.1,1.3-9.3,4c-2.9,2.7-4.5,6.1-4.5,10.4v53.1H17.6v-68.3
			c-4.5,0-8.5,0.8-12,2.1L3.5,434z"/>
		<path fill="#3C4044" d="M186.9,464.1c3.5-4.3,5.3-8.8,5.3-13.1s-1.1-7.7-2.9-10.1c-1.9-2.4-4.8-3.5-8.8-3.5s-7.7,2.7-11.2,8.3
			c-3.5,5.6-5.3,13.1-5.3,22.4s1.6,16.8,5.1,22.4s8.3,8.5,14.4,8.5c9.6,0,17.6-3.7,24.3-11.2l4.3,2.7c-3.5,5.3-7.7,9.6-13.3,12.8
			c-5.6,3.2-11.7,4.8-18.7,4.8c-11.7,0-21.3-4-28.3-11.7s-10.7-17.1-10.7-28.3c0-10.9,3.7-20.3,11.2-27.7
			c7.5-7.5,17.9-11.2,31.2-11.2c8.8,0,15.5,2.1,20.5,6.1c5.1,4,7.5,9.3,7.5,15.5s-2.7,12-8.3,17.3s-12.8,8-21.9,8
			c-3.2,0-6.1-0.3-8.8-1.1l-0.5-3.7C178.4,470.8,183.2,468.4,186.9,464.1z"/>
		<path fill="#3C4044" d="M290.9,400.9v88.3c0,2.7,0.5,4.8,1.9,6.4c1.3,1.6,3.2,2.4,5.6,2.4s5.3-1.3,8.8-4.3l3.5,3.5
			c-8,7.2-16,10.9-23.7,10.9c-9.3,0-15.2-4.5-17.3-13.3c-5.1,8.8-12.8,13.3-22.7,13.3c-11.5,0-20-3.7-26.1-11.2s-8.8-16.8-8.8-28.3
			s3.2-20.8,9.6-28.3c6.4-7.5,15.5-11.2,26.9-11.2c8.8,0,15.7,3.5,20.3,10.7V399c-5.3,1.3-9.6,3.7-12.5,7.2l-4-4.5
			c2.9-2.9,6.4-5.3,10.9-7.2s8.8-2.7,13.1-2.7s7.7,0.8,10.7,2.7C289.6,396.4,290.9,398.5,290.9,400.9z M238.9,446
			c-2.7,5.6-4.3,13.1-4.3,22.7s1.3,17.1,4.3,22.7c2.7,5.6,6.9,8.3,12.8,8.3c5.6,0,10.1-2.9,13.1-8.5s4.5-13.1,4.5-22.7
			c0-9.3-1.6-17.1-4.5-22.7s-7.5-8.5-13.1-8.5C246.1,437.7,241.9,440.4,238.9,446z"/>
		<path fill="#3C4044" d="M318.4,429.2c9.3,0,13.9,4,13.9,12v48c0,2.7,0.5,4.8,1.9,6.4s3.2,2.4,5.9,2.4s5.9-1.3,9.3-4.3l2.7,3.5
			c-8,7.2-16,10.9-23.7,10.9c-12.3,0-18.4-7.2-18.4-21.9v-49.9c-5.3,1.3-9.6,3.7-12.5,7.2l-4-4.5c2.9-2.9,6.4-5.3,10.9-7.2
			C309.1,430,313.6,429.2,318.4,429.2z M312.8,414.5c-2.4-2.4-3.5-5.1-3.5-8.5c0-3.5,1.1-6.1,3.5-8.5s5.1-3.5,8.5-3.5
			c3.2,0,6.1,1.1,8.5,3.5s3.5,5.1,3.5,8.5c0,3.5-1.1,6.1-3.5,8.5s-5.1,3.5-8.5,3.5C318.1,418,315.2,416.9,312.8,414.5z"/>
		<path fill="#3C4044" d="M420.3,431.3v57.9c0,2.7,0.5,4.8,1.9,6.4c1.3,1.6,3.2,2.4,5.9,2.4c2.7,0,5.9-1.3,9.3-4.3l2.7,3.5
			c-8,7.2-16,10.9-23.7,10.9c-9.3,0-15.2-4.5-17.3-13.3c-5.1,8.8-12.8,13.3-22.7,13.3c-11.5,0-20-3.7-26.1-11.2
			c-5.9-7.5-8.8-16.8-8.8-28.3s3.2-20.8,9.6-28.3s15.5-11.2,26.9-11.2c8.8,0,15.7,3.5,20.3,10.7v-8.5H420.3z M368.3,446
			c-2.7,5.6-4.3,13.1-4.3,22.7s1.3,17.1,4.3,22.7c2.7,5.6,6.9,8.3,12.8,8.3s10.1-2.9,13.1-8.5c2.9-5.6,4.5-13.1,4.5-22.7
			c0-9.3-1.6-17.1-4.5-22.7s-7.5-8.5-13.1-8.5S371.2,440.4,368.3,446z"/>
		<path fill="#3C4044" d="M477.3,447.3c-2.1-2.1-3.5-5.1-3.5-8c0-3.2,1.1-5.9,3.5-8c2.1-2.1,5.1-3.5,8.5-3.5s6.4,1.3,8.8,3.7
			c2.4,2.4,4.3,5.9,5.1,10.1c1.9,7.2,2.9,14.4,2.9,21.3s-0.8,13.1-2.4,18.1c-1.6,5.1-4,9.3-6.7,12.5s-5.6,5.9-8.8,8.3
			c-6.1,4.3-12.3,6.1-18.4,6.1c-8.5,0-15.2-2.1-20-6.4s-7.5-10.4-7.5-18.4v-46.9c-5.3,1.3-9.6,3.7-12.5,7.2l-4-4.5
			c2.9-2.9,6.4-5.3,10.9-7.2c4.5-1.9,8.8-2.7,13.1-2.7c4.3,0,7.7,0.8,10.7,2.7c2.7,1.9,4.3,4,4.3,6.4v49.6c0,3.2,1.1,5.6,2.9,7.2
			s4.5,2.4,7.5,2.4c6.1,0,11.7-3.2,16.3-9.9c4.5-6.4,6.9-14.4,6.9-24c0-4.8-1.1-9.9-2.9-14.9c-1.9,1.1-4,1.9-6.9,1.9
			C482.1,450.5,479.7,449.5,477.3,447.3z"/>
		<path fill="#3C4044" d="M513.1,451.1c-1.3-9.9-2.4-18.4-3.5-25.3c-0.8-6.9-1.3-11.7-1.3-14.9c0-3.2,1.1-5.9,3.2-8
			c2.1-2.1,5.1-3.5,8.5-3.5s6.4,1.1,8.5,3.5c2.1,2.1,3.2,4.8,3.2,8s-0.5,8-1.3,14.9s-1.9,15.2-3.5,25.3c-1.3,9.9-2.4,18.1-3.2,24.5
			h-8C515.5,469.2,514.4,460.9,513.1,451.1z M512,504.7c-2.1-2.1-3.5-5.1-3.5-8s1.1-5.9,3.5-8c2.1-2.1,5.1-3.5,8-3.5
			c3.2,0,5.9,1.1,8,3.5c2.1,2.1,3.5,5.1,3.5,8s-1.1,5.9-3.5,8s-5.1,3.5-8,3.5S514.4,507.1,512,504.7z"/>
		<path fill="#3C4044" d="M617.9,400.9v88.3c0,2.7,0.5,4.8,1.9,6.4s3.2,2.4,5.6,2.4c2.4,0,5.3-1.3,8.8-4.3l3.5,3.5
			c-8,7.2-16,10.9-23.7,10.9c-9.3,0-15.2-4.5-17.3-13.3c-5.1,8.8-12.8,13.3-22.7,13.3c-11.5,0-20-3.7-26.1-11.2
			c-5.9-7.5-8.8-16.8-8.8-28.3s3.2-20.8,9.6-28.3c6.4-7.5,15.5-11.2,26.9-11.2c8.8,0,15.7,3.5,20.3,10.7V399
			c-5.3,1.3-9.6,3.7-12.5,7.2l-4-4.5c2.9-2.9,6.4-5.3,10.9-7.2s8.8-2.7,13.1-2.7s7.7,0.8,10.7,2.7
			C616.5,396.4,617.9,398.5,617.9,400.9z M565.9,446c-2.7,5.6-4.3,13.1-4.3,22.7s1.3,17.1,4.3,22.7c2.7,5.6,6.9,8.3,12.8,8.3
			s10.1-2.9,13.1-8.5c2.9-5.6,4.5-13.1,4.5-22.7c0-9.3-1.6-17.1-4.5-22.7s-7.5-8.5-13.1-8.5S568.8,440.4,565.9,446z"/>
		<path fill="#3C4044" d="M672.5,464.1c3.5-4.3,5.3-8.8,5.3-13.1s-1.1-7.7-2.9-10.1s-4.8-3.5-8.8-3.5s-7.7,2.7-11.2,8.3
			c-3.5,5.6-5.3,13.1-5.3,22.4s1.6,16.8,5.1,22.4s8.3,8.5,14.4,8.5c9.6,0,17.6-3.7,24.3-11.2l4.3,2.7c-3.5,5.3-7.7,9.6-13.3,12.8
			c-5.6,3.2-11.7,4.8-18.7,4.8c-11.7,0-21.3-4-28.3-11.7s-10.7-17.1-10.7-28.3c0-10.9,3.7-20.3,11.2-27.7
			c7.5-7.5,17.9-11.2,31.2-11.2c8.8,0,15.5,2.1,20.5,6.1c5.1,4,7.5,9.3,7.5,15.5s-2.7,12-8.3,17.3s-12.8,8-21.9,8
			c-3.2,0-6.1-0.3-8.8-1.1l-0.3-3.5C664,470.8,669.1,468.4,672.5,464.1z"/>
		<path fill="#3C4044" d="M776.5,431.3v57.9c0,2.7,0.5,4.8,1.9,6.4s3.2,2.4,5.9,2.4s5.9-1.3,9.3-4.3l2.7,3.5
			c-8,7.2-16,10.9-23.7,10.9c-9.3,0-15.2-4.5-17.3-13.3c-5.1,8.8-12.8,13.3-22.7,13.3c-11.5,0-20-3.7-26.1-11.2s-8.8-16.8-8.8-28.3
			s3.2-20.8,9.6-28.3c6.4-7.5,15.5-11.2,26.9-11.2c8.8,0,15.7,3.5,20.3,10.7v-8.5H776.5z M724.8,446c-2.7,5.6-4.3,13.1-4.3,22.7
			s1.3,17.1,4.3,22.7c2.7,5.6,6.9,8.3,12.8,8.3c5.9,0,10.1-2.9,13.1-8.5s4.5-13.1,4.5-22.7c0-9.3-1.6-17.1-4.5-22.7
			s-7.5-8.5-13.1-8.5C732,437.2,727.5,440.4,724.8,446z"/>
	</g>
</g>
</svg>
